<svg version="1.1" xmlns="http://www.w3.org/2000/svg" xmlns:xlink="http://www.w3.org/1999/xlink" width="861.50144" height="861.50144" viewBox="312.50052,-81.50014,861.50144,861.50144"><defs><clipPath id="clip-1"><rect x="371.44515" y="-96.8729" transform="scale(0.84131,0.84131)" width="1024" height="1024" id="clip-1" fill="none"/></clipPath><clipPath id="clip-2"><rect x="-1395.44515" y="-96.8729" transform="rotate(-180) scale(0.84131,-0.84131)" width="1024" height="1024" rx="109.911" ry="0" id="clip-2" fill="none"/></clipPath></defs><g id="document" fill="#ffffff" fill-rule="nonzero" stroke="#000000" stroke-width="0" stroke-linecap="butt" stroke-linejoin="miter" stroke-miterlimit="10" stroke-dasharray="" stroke-dashoffset="0" font-family="none" font-weight="none" font-size="none" text-anchor="none" style="mix-blend-mode: normal"><rect x="369.5" y="11.07143" transform="scale(1,1.4)" width="700" height="500" id="Shape 1 1" vector-effect="non-scaling-stroke"/></g><g fill="none" fill-rule="nonzero" stroke="none" stroke-width="1" stroke-linecap="butt" stroke-linejoin="miter" stroke-miterlimit="10" stroke-dasharray="" stroke-dashoffset="0" font-family="none" font-weight="none" font-size="none" text-anchor="none" style="mix-blend-mode: normal"><g><g id="stage"><g id="layer1 1"><g clip-path="url(#clip-1)" id="Group 1"><g clip-path="url(#clip-2)" id="Group 1"><rect x="-1395.44515" y="-96.8729" transform="rotate(-180) scale(0.84131,-0.84131)" width="1024" height="1024" rx="109.911" ry="0" id="Shape 1" fill="#bd0005"/><g id="Group 1" fill="#ffffff"><path d="M631.54946,368.51428l-37.08741,-104.22804c-3.67231,-10.31949 3.76233,-21.26576 14.33253,-20.92334c192.027,6.22148 290.8,72.02527 281.80893,269.98182c-31.99412,-135.27653 -185.44629,-144.83043 -259.05406,-144.83043z" id="Path 1"/></g><g id="Group 1" fill="#ffffff"><path d="M581.956,198.71718l-38.82387,-101.56277c-3.96593,-10.37418 3.46619,-21.62752 14.19624,-21.52067c194.5728,1.94426 331.63123,9.57746 331.63123,266.27333c-31.99497,-135.27653 -233.39583,-143.18988 -307.0036,-143.18988z" id="Path 1"/></g><g id="Group 1" fill="#ffffff"><path d="M682.4074,543.74456l-39.44896,-110.58581c-3.66138,-10.26481 3.69503,-21.18163 14.21391,-20.8409c158.16433,5.1202 237.5174,68.95029 228.59112,265.49091c-31.99412,-135.27653 -129.21827,-134.06421 -203.35607,-134.06421z" id="Path 1"/></g></g></g></g></g></g></g></svg>